<svg xmlns="http://www.w3.org/2000/svg" data-name="Layer 1" viewBox="0 0 24 24" id="monitor"><path d="M21.5,1.5H2.5A2.5,2.5,0,0,0,0,4V16a2.5,2.5,0,0,0,2.5,2.5H9a2.49,2.49,0,0,1-1.1,2L6.22,21.58a.5.5,0,0,0,.28.92h11a.5.5,0,0,0,.28-.92l-1.66-1.11a2.49,2.49,0,0,1-1.1-2H21.5A2.5,2.5,0,0,0,24,16V4A2.5,2.5,0,0,0,21.5,1.5ZM15.56,21.31l.29.19H8.15l.29-.19A3.49,3.49,0,0,0,10,18.5h4A3.49,3.49,0,0,0,15.56,21.31ZM23,16a1.5,1.5,0,0,1-1.5,1.5H2.5A1.5,1.5,0,0,1,1,16v-.5H23Zm0-1.5H1V4A1.5,1.5,0,0,1,2.5,2.5h19A1.5,1.5,0,0,1,23,4Z"></path></svg>