<svg version="1.1" id="Layer_1" xmlns="http://www.w3.org/2000/svg" xmlns:xlink="http://www.w3.org/1999/xlink" x="0px" y="0px"
	 width="100%" viewBox="0 0 1024 1024" enable-background="new 0 0 1024 1024" xml:space="preserve">
<path fill="#000000" opacity="1.000000" stroke="none" 
	d="
M623.204956,762.570557 
	C625.078125,751.400818 629.533081,741.608887 634.636230,732.338562 
	C632.157227,729.608887 629.501587,730.399170 627.116455,730.396729 
	C572.624390,730.341187 518.132080,730.273865 463.640411,730.427002 
	C458.457031,730.441589 455.214203,729.035950 452.170380,724.586182 
	C436.030823,700.991516 413.618469,686.659546 385.350677,682.631042 
	C368.869476,680.282349 352.880493,683.711914 337.927246,691.300171 
	C335.256012,692.655701 332.565948,693.975525 329.858307,695.256287 
	C329.441162,695.453735 328.881805,695.350464 327.465942,695.453125 
	C325.798798,680.726746 325.916016,666.614685 334.283386,653.409546 
	C342.501556,640.439941 355.244965,633.930603 369.077087,628.105469 
	C363.288177,622.017273 357.306580,616.759216 353.038055,609.913391 
	C346.911041,600.086975 344.923767,588.850525 341.725220,578.061401 
	C330.993958,541.863770 319.085541,506.034180 308.097046,469.923523 
	C293.424835,421.707184 278.057068,373.713623 262.972595,325.629242 
	C260.981323,319.281708 258.694641,313.023895 256.824097,306.642639 
	C255.668839,302.701538 253.657822,301.104279 249.330109,301.169617 
	C232.502991,301.423676 215.669800,301.312927 198.839005,301.276703 
	C175.741852,301.226990 156.857834,285.153259 155.254776,262.310089 
	C153.950668,243.726868 162.557617,226.685242 183.293625,217.716110 
	C192.839401,213.587189 202.851624,214.204178 212.729080,214.337753 
	C231.374832,214.589935 250.009506,214.780991 268.652985,214.257828 
	C286.820190,213.748016 302.530579,219.949295 316.020630,232.025040 
	C332.318726,246.614471 340.463409,265.739227 346.179596,286.203339 
	C347.877991,292.283752 349.891693,298.344177 350.810211,304.554382 
	C351.658173,310.287628 355.035919,311.521942 359.748657,311.528961 
	C396.851105,311.584259 433.953888,311.703613 471.056091,311.610443 
	C506.672028,311.520996 542.287231,311.082672 577.903137,311.023956 
	C601.032837,310.985840 624.162842,311.443298 647.293274,311.517700 
	C681.102844,311.626434 714.918213,311.956818 748.720337,311.458374 
	C765.033386,311.217804 781.347412,311.040741 797.660156,310.991455 
	C808.628479,310.958282 819.605774,311.254913 830.565735,311.717712 
	C845.447998,312.346069 857.188049,327.419952 853.375916,341.755676 
	C847.613586,363.425476 840.948303,384.853394 834.989746,406.473114 
	C824.311157,445.218262 813.879089,484.031372 803.331299,522.812622 
	C798.665588,539.966980 793.975708,557.114685 789.283691,574.261902 
	C785.395508,588.471619 775.003723,594.971985 761.397034,597.223450 
	C740.127563,600.742798 718.811890,603.984070 697.511902,607.318115 
	C674.406799,610.934631 651.301025,614.547485 628.188599,618.116516 
	C601.480469,622.240845 574.759399,626.281372 548.053650,630.420837 
	C519.369385,634.867004 490.697632,639.394043 462.017853,643.869446 
	C450.214081,645.711365 438.293182,646.991272 426.626801,649.472900 
	C414.621155,652.026672 403.043793,656.294617 390.883606,660.600220 
	C393.093262,662.624207 395.400116,662.963562 397.473083,663.635559 
	C409.057373,667.390625 420.255463,672.100281 431.205780,677.380676 
	C434.609253,679.021851 437.968842,679.776367 441.739349,679.775452 
	C548.889404,679.748596 656.039429,679.796448 763.189453,679.812012 
	C770.856201,679.813110 778.155273,681.048157 784.266663,686.063721 
	C791.920471,692.345276 795.827942,700.468201 793.776794,710.314453 
	C791.476257,721.357788 783.865417,727.550293 773.151550,730.387390 
	C768.792297,731.541748 764.257935,730.874390 759.577637,731.774902 
	C760.435181,736.141113 762.582581,739.532349 764.351562,742.999084 
	C782.298157,778.170532 767.921936,820.901001 737.534668,840.277588 
	C692.080383,869.261780 636.689453,843.245667 624.667114,795.059326 
	C622.008484,784.403564 620.952637,773.809814 623.204956,762.570557 
M398.908813,605.574951 
	C407.755707,610.762634 417.332520,613.163940 427.542389,612.575562 
	C433.825165,612.213562 440.084656,611.389526 446.343079,610.672546 
	C462.316010,608.842712 478.277374,606.911743 494.253265,605.108643 
	C504.965424,603.899597 515.689880,602.793945 526.419250,601.748291 
	C528.878723,601.508667 531.358337,601.449890 533.401367,603.525818 
	C536.695251,606.872742 540.455505,607.786560 544.638184,605.013672 
	C549.439392,601.830627 551.570435,596.682617 550.132874,591.700806 
	C548.038696,584.443542 543.137268,580.681030 534.635254,581.314880 
	C522.381836,582.228271 510.176178,583.827148 497.966034,585.268005 
	C474.746521,588.008118 451.515839,590.671631 428.333435,593.700928 
	C413.357239,595.658020 396.745117,585.870605 392.160706,571.402893 
	C385.183350,549.383606 378.466827,527.281555 371.661926,505.207733 
	C357.017365,457.703522 342.434814,410.180115 327.733215,362.693573 
	C318.735168,333.629517 310.538116,304.313354 300.654724,275.528687 
	C295.026794,259.137787 281.193878,248.542221 265.402740,248.393082 
	C247.244415,248.221573 229.083115,248.300629 210.923447,248.364517 
	C203.319214,248.391266 198.455872,252.483002 198.468201,258.540375 
	C198.478439,263.558319 203.232758,266.911774 210.540939,267.006104 
	C228.356216,267.235992 246.171402,267.480469 263.987305,267.646545 
	C269.421387,267.697205 274.111908,269.561127 278.038940,273.180420 
	C282.862976,277.626404 285.121246,283.512787 286.918457,289.665100 
	C292.788635,309.760406 298.637085,329.863251 304.700653,349.900635 
	C316.062286,387.445831 327.545166,424.954437 339.050507,462.455902 
	C340.242676,466.341705 340.838318,469.400726 336.789459,472.436157 
	C333.521210,474.886353 332.198181,479.084320 333.966644,483.285980 
	C335.866516,487.799866 338.995789,491.546722 344.225220,491.517609 
	C348.365265,491.494568 349.650421,493.536774 350.632660,496.844330 
	C357.489136,519.932800 364.878113,542.875427 371.163147,566.117188 
	C375.625275,582.617737 383.616211,596.079956 398.908813,605.574951 
M598.301453,393.499817 
	C598.293762,405.990601 598.418762,418.483704 598.204712,430.970947 
	C598.132202,435.201141 599.359314,436.908844 603.837219,436.883209 
	C627.942932,436.745087 652.050720,436.763824 676.156067,436.950714 
	C680.469666,436.984131 682.000000,435.063293 682.641235,431.242401 
	C686.699829,407.056946 690.831482,382.883759 694.981140,358.713715 
	C695.791809,353.991882 694.846191,352.419678 690.157043,352.408081 
	C661.678345,352.337524 633.199280,352.394684 604.720337,352.367371 
	C600.169006,352.363007 598.133484,354.265594 598.221863,359.025757 
	C598.429077,370.180389 598.295471,381.341400 598.301453,393.499817 
M555.947754,435.390961 
	C556.964600,433.525391 556.641968,431.487213 556.643921,429.511597 
	C556.666321,406.529388 556.667236,383.547150 556.655823,360.564941 
	C556.652039,352.982941 556.041931,352.368988 548.367493,352.362701 
	C523.886414,352.342621 499.405365,352.346954 474.924286,352.353027 
	C473.427582,352.353394 471.891785,352.255249 470.442810,352.545532 
	C467.878937,353.059204 466.375793,354.312408 466.891846,357.428680 
	C468.380219,366.416504 469.551361,375.456390 470.985565,384.453735 
	C473.384583,399.503723 475.973724,414.523743 478.310974,429.583038 
	C479.225677,435.476685 480.274353,436.715515 486.256561,436.758148 
	C504.186279,436.885925 522.117554,437.109009 540.045654,436.967377 
	C545.144287,436.927124 550.364746,437.711334 555.947754,435.390961 
M668.702881,518.590759 
	C670.735474,506.338623 672.757996,494.084839 674.807434,481.835510 
	C675.360107,478.532318 673.918274,477.322235 670.693665,477.331482 
	C648.379639,477.395355 626.065491,477.400238 603.751343,477.374329 
	C599.743530,477.369690 598.172424,479.167114 598.192993,483.192841 
	C598.312744,506.672089 598.354309,530.152405 598.235596,553.631409 
	C598.214966,557.712952 599.901306,558.755859 603.619019,558.696533 
	C613.441406,558.539795 623.268005,558.673889 633.092712,558.636597 
	C640.914856,558.606934 648.736572,558.477539 656.558716,558.427124 
	C660.646362,558.400818 662.817017,556.638062 663.427246,552.356323 
	C664.993408,541.368469 666.894775,530.428467 668.702881,518.590759 
M768.500061,352.368805 
	C760.837952,352.370178 753.169006,352.567780 745.516113,352.302429 
	C740.593872,352.131775 738.225891,354.150177 737.438843,358.926025 
	C733.531555,382.636627 729.491272,406.325317 725.518250,430.025116 
	C724.716309,434.808655 726.364441,436.765137 731.396545,436.782166 
	C746.553833,436.833435 761.713013,436.680786 776.867981,436.876526 
	C781.238892,436.932922 782.890930,435.105377 783.934143,431.061523 
	C789.408325,409.841553 795.159424,388.692993 800.822205,367.521729 
	C802.088867,362.786072 803.934509,358.172760 804.291321,352.369659 
	C792.384033,352.369659 780.942078,352.369659 768.500061,352.368805 
M496.419281,540.276855 
	C497.332550,544.818726 498.612976,549.325745 499.049011,553.912964 
	C499.433960,557.962952 501.400146,558.729126 504.939392,558.700439 
	C519.933655,558.578857 534.929504,558.663513 549.924744,558.643311 
	C555.811951,558.635315 556.622253,557.890503 556.632141,552.071777 
	C556.670776,529.245728 556.580627,506.419128 556.712646,483.593719 
	C556.738770,479.086182 555.045837,477.305206 550.547058,477.332275 
	C531.553772,477.446686 512.559265,477.351746 493.565460,477.407074 
	C488.205475,477.422699 486.659454,478.891724 487.438568,483.958069 
	C490.284485,502.464050 493.363007,520.934265 496.419281,540.276855 
M373.761292,375.868439 
	C379.059204,394.036560 384.469727,412.173096 389.578461,430.394257 
	C390.912170,435.151154 393.143738,437.151276 398.299194,436.963501 
	C409.442444,436.557526 420.611328,436.594513 431.762939,436.806274 
	C436.353973,436.893433 437.073273,434.993866 436.431305,431.043610 
	C434.038300,416.318848 431.883026,401.555603 429.512177,386.827118 
	C427.931671,377.008209 426.200043,367.212189 424.394775,357.431976 
	C423.925568,354.889984 423.521088,352.258667 419.634430,352.297821 
	C403.983124,352.455475 388.329224,352.368835 372.676300,352.356445 
	C368.794891,352.353363 367.667542,354.300659 368.661407,357.842682 
	C370.275208,363.593964 371.880035,369.347748 373.761292,375.868439 
M758.429321,477.355072 
	C746.775696,477.362030 735.120667,477.473907 723.469299,477.314667 
	C719.773560,477.264160 717.972290,478.638428 717.390808,482.259003 
	C713.581909,505.972443 709.498291,529.639954 706.018311,553.409424 
	C705.299316,558.320801 706.987610,558.721680 710.787598,558.687378 
	C721.940918,558.586731 733.100403,558.463013 744.247498,558.743591 
	C748.450745,558.849426 750.452087,557.627991 751.518494,553.407776 
	C756.923645,532.016479 762.494507,510.665009 768.245789,489.363983 
	C771.491272,477.343811 771.698608,477.399780 758.429321,477.355072 
M673.726685,751.226074 
	C665.595947,758.728210 661.786987,768.452515 662.605469,779.035156 
	C664.168762,799.246155 680.722290,812.876343 699.532104,811.895813 
	C721.763367,810.737000 737.944580,786.837219 730.169678,765.910767 
	C721.733337,743.203979 694.578857,733.735779 673.726685,751.226074 
M418.061005,522.614746 
	C420.123199,529.442871 422.109283,536.295105 424.268280,543.092529 
	C426.592377,550.409790 430.540833,556.519104 438.562897,558.256836 
	C442.229614,559.051147 446.173309,558.638916 449.991608,558.644897 
	C456.399628,558.654907 457.577820,557.490906 456.537933,551.382385 
	C453.011108,530.664673 449.484039,509.944702 445.655151,489.281525 
	C443.441193,477.333618 443.179749,477.306610 430.974915,477.404205 
	C422.717163,477.470245 414.427917,476.907166 405.643860,477.909912 
	C408.477020,493.257568 413.973114,507.336395 418.061005,522.614746 
z"/>
<path fill="#000000" opacity="1.000000" stroke="none" 
	d="
M387.121094,702.639038 
	C412.485504,707.319397 432.687622,719.262390 444.046051,742.517517 
	C459.462646,774.081177 452.023560,810.877625 424.963654,833.982239 
	C403.144257,852.612366 377.843506,856.683228 351.196014,846.882324 
	C324.761078,837.159668 308.925751,817.198303 303.740601,789.700745 
	C295.672882,746.916626 324.137451,708.506165 367.347382,702.543518 
	C373.847137,701.646667 380.237518,701.277222 387.121094,702.639038 
M361.267151,745.749268 
	C346.371765,754.241394 339.043304,770.382751 343.506744,785.833679 
	C349.652161,807.106812 369.448334,816.101746 388.518372,810.173462 
	C406.625214,804.544678 416.239441,781.951843 408.348389,763.787170 
	C401.333435,747.639221 383.006714,736.004456 361.267151,745.749268 
M414.988556,758.607117 
	C417.598480,760.087585 420.043152,759.549683 422.502625,758.127991 
	C430.793030,753.335571 432.106445,743.362000 425.433228,735.575989 
	C421.296509,730.749451 415.959503,729.784363 410.759888,732.922485 
	C406.156433,735.700806 404.052155,742.108032 406.087006,747.310852 
	C407.814056,751.726685 410.419373,755.501709 414.988556,758.607117 
z"/>
</svg>