<svg xmlns="http://www.w3.org/2000/svg" width="96" height="96" viewBox="0 0 96 96" id="graph"><g transform="translate(0 -956.362)"><path d="M 48 0 C 21.502177 0 0 21.50217 0 48 C 0 74.4979 21.502177 96 48 96 C 74.497823 96 96 74.4979 96 48 C 96 21.50217 74.497823 0 48 0 z M 48 2 C 73.416943 2 94 22.58307 94 48 C 94 73.417 73.416943 94 48 94 C 22.583057 94 2 73.417 2 48 C 2 22.58308 22.583057 2 48 2 z M 72 24 A 2.0000226 2.0000226 0 0 0 70 26 A 2.0000226 2.0000226 0 0 0 72 28 A 2.0000226 2.0000226 0 0 0 74 26 A 2.0000226 2.0000226 0 0 0 72 24 z M 48 30 A 2.0000226 2.0000226 0 0 0 46 32 A 2.0000226 2.0000226 0 0 0 48 34 A 2.0000226 2.0000226 0 0 0 50 32 A 2.0000226 2.0000226 0 0 0 48 30 z M 68 30 L 68 69 L 76 69 L 76 30 L 68 30 z M 44 36 L 44 69 L 52 69 L 52 36 L 44 36 z M 24 38 A 2.0000226 2.0000226 0 0 0 22 40 A 2.0000226 2.0000226 0 0 0 24 42 A 2.0000226 2.0000226 0 0 0 26 40 A 2.0000226 2.0000226 0 0 0 24 38 z M 20 44 L 20 69 L 28 69 L 28 44 L 20 44 z M 36 44 A 2.0000226 2.0000226 0 0 0 34 46 A 2.0000226 2.0000226 0 0 0 36 48 A 2.0000226 2.0000226 0 0 0 38 46 A 2.0000226 2.0000226 0 0 0 36 44 z M 60 47 A 2.0000226 2.0000226 0 0 0 58 49 A 2.0000226 2.0000226 0 0 0 60 51 A 2.0000226 2.0000226 0 0 0 62 49 A 2.0000226 2.0000226 0 0 0 60 47 z M 32 50 L 32 69 L 40 69 L 40 50 L 32 50 z M 56 53 L 56 69 L 64 69 L 64 53 L 56 53 z M 19.035156 70 C 18.462053 70 18 70.431297 18 70.966797 L 18 71.033203 C 18 71.568703 18.462053 72 19.035156 72 L 76.964844 72 C 77.537947 72 78 71.568703 78 71.033203 L 78 70.966797 C 78 70.431297 77.537947 70 76.964844 70 L 19.035156 70 z " transform="translate(0 956.362)"></path></g></svg>